<?xml version="1.0" standalone="no"?>
<!DOCTYPE svg PUBLIC "-//W3C//DTD SVG 20010904//EN"
 "http://www.w3.org/TR/2001/REC-SVG-20010904/DTD/svg10.dtd">
<svg version="1.0" xmlns="http://www.w3.org/2000/svg"
 width="256.000000pt" height="256.000000pt" viewBox="0 0 256.000000 256.000000"
 preserveAspectRatio="xMidYMid meet">
<metadata>
Created by potrace 1.16, written by Peter Selinger 2001-2019
</metadata>
<g transform="translate(0.000000,256.000000) scale(0.100000,-0.100000)"
fill="#000000" stroke="none">
<path d="M1226 2241 c-73 -11 -76 -19 -76 -202 0 -117 -3 -158 -12 -162 -11
-3 42 -38 57 -37 3 0 45 0 94 0 l89 0 10 -32 c15 -50 20 -100 11 -128 l-7 -25
-1 27 c-1 15 -6 49 -12 77 -8 37 -14 48 -27 46 -10 -1 -16 -9 -14 -19 2 -13
-2 -14 -20 -7 -16 6 -27 4 -36 -5 -14 -15 -16 -28 -4 -20 5 3 6 -9 4 -27 l-5
-32 -14 35 c-31 78 -30 78 -38 9 -4 -37 -4 -77 0 -90 5 -19 4 -21 -4 -9 -6 8
-11 39 -11 69 0 46 -2 52 -15 41 -8 -7 -15 -21 -15 -32 0 -10 -4 -17 -9 -13
-5 3 -15 -21 -21 -52 -16 -77 -18 -83 -19 -50 -1 16 6 53 15 83 8 30 14 64 12
75 -2 18 -11 11 -51 -41 -27 -34 -52 -71 -57 -83 -6 -16 -9 -18 -9 -5 -1 9 8
37 19 63 24 55 25 65 7 65 -17 0 -40 -24 -62 -65 l-17 -30 5 44 c3 24 16 58
28 74 l22 31 -31 -23 c-36 -25 -82 -82 -82 -99 0 -7 -4 -12 -10 -12 -15 0 -12
37 6 72 16 30 16 30 -6 15 -31 -22 -77 -87 -88 -127 l-10 -35 -1 38 c-2 63 33
110 124 171 22 14 36 26 31 26 -26 0 -131 -91 -152 -133 -21 -39 -16 -226 5
-200 9 13 12 14 9 3 -3 -8 10 -33 29 -54 48 -58 42 -115 -9 -69 -24 22 -23 6
3 -37 l21 -35 -26 24 c-33 31 -33 23 0 -40 14 -28 24 -55 22 -61 -2 -6 -19 22
-37 63 -29 65 -32 81 -27 129 5 44 4 51 -6 36 -21 -36 -11 -98 27 -181 21 -44
46 -91 56 -104 23 -29 26 -66 4 -57 -14 5 -14 2 0 -24 8 -16 15 -41 15 -56 0
-41 41 -204 51 -204 12 0 11 -37 -1 -61 -6 -11 -7 -19 -1 -19 5 0 12 8 16 17
6 16 8 15 21 -7 8 -14 13 -18 10 -10 -2 8 -20 62 -39 120 -22 66 -38 137 -42
190 -4 47 -11 93 -16 102 -5 9 -5 19 0 22 4 3 11 30 14 60 7 71 35 158 61 191
l21 26 85 -26 c75 -23 98 -26 200 -23 65 3 125 10 138 17 12 6 27 9 32 6 6 -4
10 -62 10 -135 l0 -128 36 -14 37 -15 -62 -6 c-35 -3 -76 -14 -97 -26 -40 -24
-60 -26 -67 -8 -4 9 -7 9 -17 0 -11 -10 -11 -18 -2 -38 7 -14 12 -42 12 -61 0
-19 4 -33 9 -30 5 3 12 -9 17 -27 l8 -32 3 36 4 36 37 -18 c23 -12 57 -19 94
-19 69 0 71 -6 32 -90 -46 -100 -74 -114 -96 -48 -18 55 -58 86 -93 70 -35
-16 -31 -32 9 -32 31 0 66 -20 66 -38 0 -13 -15 -29 -37 -41 -27 -14 -108 -15
-133 -1 -17 9 -18 7 -9 -23 7 -26 6 -34 -8 -44 -20 -16 -91 -17 -163 -3 -74
14 -183 68 -176 86 3 9 1 12 -4 9 -17 -11 -11 -24 25 -61 19 -19 35 -42 35
-52 0 -9 11 -46 24 -82 28 -74 51 -150 50 -166 -1 -6 11 -15 27 -21 25 -10 28
-8 34 14 9 36 -3 47 -28 26 -21 -17 -21 -17 -7 1 13 16 12 20 -3 30 -16 12
-44 71 -73 149 l-13 38 26 -20 c14 -12 31 -21 37 -21 6 0 34 -18 61 -40 28
-22 58 -40 68 -40 23 0 70 -24 86 -44 7 -9 17 -14 21 -11 4 2 7 -12 7 -33 0
-20 -2 -28 -4 -18 -4 15 -7 16 -14 5 -6 -10 -9 -5 -9 16 0 21 -3 26 -9 16 -7
-11 -9 -11 -14 0 -3 8 -6 2 -6 -13 -1 -36 -21 -47 -21 -11 0 20 -3 24 -9 14
-5 -8 -8 -24 -6 -37 1 -13 -1 -21 -5 -19 -4 2 -12 -7 -19 -22 -6 -14 -15 -23
-18 -19 -4 3 -1 12 5 18 7 7 12 23 12 36 0 23 -1 24 -22 10 -12 -8 -31 -27
-42 -41 l-19 -26 24 -20 c22 -18 102 -38 138 -34 8 1 20 -6 27 -14 21 -30 174
-11 219 27 11 9 28 20 38 23 9 4 17 11 17 17 0 5 6 10 13 10 19 0 79 95 89
141 3 13 18 57 33 98 20 57 36 83 67 111 30 26 40 41 35 54 -5 13 -14 16 -36
11 -25 -5 -29 -3 -35 21 -6 21 -1 33 21 58 l28 31 -27 -24 c-24 -21 -28 -22
-28 -7 0 9 12 33 26 51 35 46 64 105 64 130 0 30 -16 49 -35 42 -9 -4 -13 -12
-9 -18 4 -7 3 -9 -4 -5 -6 3 -15 -1 -20 -10 -15 -27 -4 66 16 136 10 36 30 92
44 125 80 188 66 352 -38 445 l-28 25 29 -40 29 -40 -40 35 c-23 19 -39 38
-37 42 2 4 -1 9 -6 12 -14 9 -7 -18 12 -48 19 -29 39 -76 32 -76 -2 0 -18 20
-35 45 -17 24 -51 59 -77 76 -40 28 -43 33 -28 42 13 7 34 5 74 -8 73 -23 154
-100 171 -164 6 -23 14 -40 17 -37 15 14 -32 98 -80 143 -56 53 -134 86 -233
99 l-52 6 -4 154 c-4 145 -5 155 -28 179 -21 22 -31 25 -89 24 -36 -1 -88 -5
-115 -8z m76 -41 c-1 -14 -7 -26 -12 -28 -15 -6 -13 -275 3 -291 10 -10 6 -12
-18 -9 l-30 3 -3 178 -2 178 32 -3 c29 -3 33 -6 30 -28z"/>
<path d="M981 1130 l-25 -21 19 -35 c26 -49 106 -114 140 -114 29 0 105 38
105 52 0 13 28 9 34 -4 3 -7 3 1 -1 17 -12 62 -31 83 -86 100 -28 9 -77 18
-107 21 -46 4 -59 1 -79 -16z"/>
</g>
</svg>
